<?xml version="1.0" ?><!DOCTYPE svg  PUBLIC '-//W3C//DTD SVG 1.1//EN'  'http://www.w3.org/Graphics/SVG/1.1/DTD/svg11.dtd'><svg enable-background="new 0 0 512 512" height="512px" id="Layer_1" version="1.1" viewBox="0 0 512 512" width="512px" xml:space="preserve" xmlns="http://www.w3.org/2000/svg" xmlns:xlink="http://www.w3.org/1999/xlink"><path d="M492.924,442.957c0,34.171-27.702,61.872-61.873,61.872H81.308c-34.171,0-61.874-27.701-61.874-61.872  V93.212c0-34.171,27.703-61.873,61.874-61.873h349.743c34.171,0,61.873,27.701,61.873,61.873V442.957z" fill="#842515"/><path d="M492.924,418.213c0,34.172-27.702,61.873-61.873,61.873H81.308c-34.171,0-61.874-27.701-61.874-61.873  V68.468c0-34.171,27.703-61.872,61.874-61.872h349.743c34.171,0,61.873,27.701,61.873,61.872V418.213z" fill="#D0422A"/><path d="M492.924,418.213V304.906L299.636,111.617c0,0-13.713,0-20.521,0c-11.668,0-23.336,0-35.004,0  c-8.136,0-16.292-0.188-24.4,0.615c-18.553,1.839-37.413,7.652-52.058,19.537c-14.539,11.799-23.542,31.203-22.273,49.959  c0.674,9.971,4.188,19.705,10.026,27.815c3.085,4.287,6.91,7.935,10.653,11.636c3.875,3.831,7.71,7.705,11.562,11.557  c5.865,6.138,11.994,12.066,18.031,18.036c5.995,5.926,11.941,11.903,17.886,17.88c-18.511,1.4-37.639,4.104-54.328,12.721  c-8.514,4.395-16.345,10.285-22.04,18.064c-4.348,5.941-7.38,12.867-8.542,20.152c-1.325,8.305,0.01,16.887,3.836,24.385  c2.368,4.642,5.614,8.61,9.298,12.264c3.769,3.927,7.692,7.727,11.557,11.561c15.475,15.352,30.764,30.889,46.239,46.239  c15.474,15.351,30.764,30.889,46.239,46.239c6.629,6.576,13.198,13.213,19.807,19.809h165.447  C465.222,480.086,492.924,452.385,492.924,418.213z" fill="#AC2215"/><g><g><path d="M263.2,262.02l-12.355-9.595c-3.762-3.121-8.91-7.24-8.91-14.779c0-7.571,5.148-12.385,9.612-16.841    c14.393-11.329,28.771-23.383,28.771-48.791c0-26.125-16.438-39.866-24.317-46.389h21.243l22.295-14.008h-67.548    c-18.535,0-45.246,4.386-64.802,20.531c-14.743,12.714-21.93,30.249-21.93,46.034c0,26.793,20.576,53.955,56.903,53.955    c3.434,0,7.185-0.337,10.962-0.688c-1.697,4.128-3.413,7.565-3.413,13.4c0,10.64,5.47,17.168,10.29,23.346    c-15.434,1.064-44.252,2.771-65.498,15.829c-20.229,12.032-26.389,29.542-26.389,41.903c0,25.44,23.981,49.135,73.7,49.135    c58.965,0,90.176-32.623,90.176-64.922C292,286.408,278.29,274.73,263.2,262.02z M218.291,222.51    c-29.497,0-42.861-38.131-42.861-61.141c0-8.959,1.695-18.206,7.531-25.43c5.5-6.879,15.077-11.344,24.018-11.344    c28.436,0,43.184,38.475,43.184,63.219c0,6.191-0.682,17.161-8.566,25.095C236.081,218.408,226.855,222.51,218.291,222.51z     M218.626,360.666c-36.679,0-60.332-17.547-60.332-41.943c0-24.391,21.93-32.642,29.479-35.373    c14.389-4.844,32.909-5.519,35.999-5.519c3.428,0,5.143,0,7.871,0.345c26.078,18.555,37.398,27.807,37.398,45.375    C269.041,344.822,251.547,360.666,218.626,360.666z" fill="#FFFFFF"/><polygon fill="#FFFFFF" points="349.78,221.987 349.78,187.634 332.812,187.634 332.812,221.987 298.517,221.987 298.517,239.142     332.812,239.142 332.812,273.703 349.78,273.703 349.78,239.142 384.245,239.142 384.245,221.987   "/></g></g></svg>