<?xml version="1.0" ?><!DOCTYPE svg  PUBLIC '-//W3C//DTD SVG 1.1//EN'  'http://www.w3.org/Graphics/SVG/1.1/DTD/svg11.dtd'><svg enable-background="new 0 0 512 512" height="512px" id="Layer_1" version="1.1" viewBox="0 0 512 512" width="512px" xml:space="preserve" xmlns="http://www.w3.org/2000/svg" xmlns:xlink="http://www.w3.org/1999/xlink"><path d="M492.275,442.759c0,34.171-27.702,61.872-61.873,61.872H80.659c-34.171,0-61.875-27.701-61.875-61.872  V93.014c0-34.171,27.704-61.872,61.875-61.872h349.743c34.171,0,61.873,27.701,61.873,61.872V442.759z" fill="#9B2424"/><path d="M492.275,418.016c0,34.17-27.702,61.871-61.873,61.871H80.659c-34.171,0-61.875-27.701-61.875-61.871V68.27  c0-34.171,27.704-61.872,61.875-61.872h349.743c34.171,0,61.873,27.701,61.873,61.872V418.016z" fill="#E7322B"/><path d="M492.275,418.016V265.133L325.061,97.918c-0.675-1.123-1.951-1.64-3.746-1.64h-44.508  c-43.732,0-80.821,33.29-80.821,97.912c0,26.904,8.655,48.897,24.644,64.554c0.33,0.337,0.663,0.67,1,1c0.33,0.337,0.663,0.67,1,1  c0.33,0.337,0.663,0.67,1,1c0.33,0.337,0.663,0.67,1,1c0.33,0.337,0.663,0.67,1,1c0.33,0.337,0.663,0.67,1,1  c0.33,0.337,15.663,15.67,16,16c0.11,0.111,0.216,0.228,0.327,0.338l-56.727,102.663c-1.384,2.499-0.803,4.591,0.757,5.603  l90.539,90.54h152.877C464.573,479.888,492.275,452.186,492.275,418.016z" fill="#BC2B2B"/><path d="M321.316,96.278h-44.508c-43.732,0-80.821,33.289-80.821,97.912c0,38.774,17.961,67.359,49.973,81.459  l-59.729,108.097c-1.955,3.528,0,6.259,3.115,6.259h27.723c2.346,0,3.907-0.781,4.688-2.73l54.27-106.143h19.519v106.143  c0,1.171,1.174,2.73,2.728,2.73h24.215c2.343,0,3.124-1.168,3.124-3.122V100.194C325.612,97.449,324.05,96.278,321.316,96.278z   M295.546,256.073h-16.398c-25.767,0-50.751-18.805-50.751-65.799c0-48.963,23.421-68.936,47.236-68.936h19.913V256.073z" fill="#FFFFFF"/></svg>